<svg xmlns="http://www.w3.org/2000/svg" viewBox="0 0 640 400" role="img" aria-labelledby="title desc"><title id="title">Sky Islands</title><desc id="desc">Original vector illustration. Travel between worlds above the clouds.</desc><defs><linearGradient id="sky" x2="0" y2="1"><stop stop-color="#142754"/><stop offset="1" stop-color="#46778f"/></linearGradient><radialGradient id="orb" cx=".3" cy=".3"><stop stop-color="#efc4ff"/><stop offset="1" stop-color="#46778f"/></radialGradient></defs><rect width="640" height="400" fill="url(#sky)"/><circle cx="185" cy="65" r="1" fill="#efc4ff" opacity="0.15"/><circle cx="322" cy="108" r="2" fill="#efc4ff" opacity="0.27"/><circle cx="459" cy="151" r="1" fill="#efc4ff" opacity="0.39"/><circle cx="596" cy="194" r="2" fill="#efc4ff" opacity="0.51"/><circle cx="93" cy="17" r="1" fill="#efc4ff" opacity="0.15"/><circle cx="230" cy="60" r="2" fill="#efc4ff" opacity="0.27"/><circle cx="367" cy="103" r="1" fill="#efc4ff" opacity="0.39"/><circle cx="504" cy="146" r="2" fill="#efc4ff" opacity="0.51"/><circle cx="1" cy="189" r="1" fill="#efc4ff" opacity="0.15"/><circle cx="138" cy="12" r="2" fill="#efc4ff" opacity="0.27"/><circle cx="275" cy="55" r="1" fill="#efc4ff" opacity="0.39"/><circle cx="412" cy="98" r="2" fill="#efc4ff" opacity="0.51"/><circle cx="549" cy="141" r="1" fill="#efc4ff" opacity="0.15"/><circle cx="46" cy="184" r="2" fill="#efc4ff" opacity="0.27"/><circle cx="183" cy="7" r="1" fill="#efc4ff" opacity="0.39"/><circle cx="320" cy="50" r="2" fill="#efc4ff" opacity="0.51"/><circle cx="457" cy="93" r="1" fill="#efc4ff" opacity="0.15"/><circle cx="594" cy="136" r="2" fill="#efc4ff" opacity="0.27"/><circle cx="91" cy="179" r="1" fill="#efc4ff" opacity="0.39"/><circle cx="228" cy="2" r="2" fill="#efc4ff" opacity="0.51"/><circle cx="365" cy="45" r="1" fill="#efc4ff" opacity="0.15"/><circle cx="502" cy="88" r="2" fill="#efc4ff" opacity="0.27"/><circle cx="639" cy="131" r="1" fill="#efc4ff" opacity="0.39"/><circle cx="136" cy="174" r="2" fill="#efc4ff" opacity="0.51"/><circle cx="273" cy="217" r="1" fill="#efc4ff" opacity="0.15"/><circle cx="410" cy="40" r="2" fill="#efc4ff" opacity="0.27"/><circle cx="547" cy="83" r="1" fill="#efc4ff" opacity="0.39"/><circle cx="44" cy="126" r="2" fill="#efc4ff" opacity="0.51"/><g transform="translate(55 170) scale(1)"><ellipse cx="100" cy="10" rx="110" ry="20" fill="#efc4ff" opacity=".08"/><path d="M0 35L190 20L140 140L65 115Z" fill="#263849"/><path d="M0 35L70 0L150 0L190 20L120 50Z" fill="#85b4a0"/><path d="M95 42V220L118 175V45Z" fill="#99e8f1" opacity=".6"/><path d="M45 16L65-44L85 14Z" fill="#1e5456"/></g><g transform="translate(330 105) scale(0.85)"><ellipse cx="100" cy="10" rx="110" ry="20" fill="#efc4ff" opacity=".08"/><path d="M0 35L190 20L140 140L65 115Z" fill="#263849"/><path d="M0 35L70 0L150 0L190 20L120 50Z" fill="#85b4a0"/><path d="M95 42V220L118 175V45Z" fill="#99e8f1" opacity=".6"/><path d="M45 16L65-44L85 14Z" fill="#1e5456"/></g><g transform="translate(475 240) scale(0.65)"><ellipse cx="100" cy="10" rx="110" ry="20" fill="#efc4ff" opacity=".08"/><path d="M0 35L190 20L140 140L65 115Z" fill="#263849"/><path d="M0 35L70 0L150 0L190 20L120 50Z" fill="#85b4a0"/><path d="M95 42V220L118 175V45Z" fill="#99e8f1" opacity=".6"/><path d="M45 16L65-44L85 14Z" fill="#1e5456"/></g><path d="M0 340Q120 300 210 350T430 342T640 345V400H0Z" fill="#c6dfee" opacity=".13"/><path d="M24 26H70M24 26V48M616 374H570M616 374V352" stroke="#efc4ff" opacity=".55" fill="none"/></svg>